<?xml version="1.0" encoding="UTF-8"?>
<svg xmlns="http://www.w3.org/2000/svg" xmlns:xlink="http://www.w3.org/1999/xlink" id="Calque_1" data-name="Calque 1" viewBox="0 0 151 38">
  <defs>
    <style>
      .cls-1 {
        fill: #010101;
      }

      .cls-2 {
        fill: url(#Dégradé_sans_nom_30);
      }
    </style>
    <linearGradient id="Dégradé_sans_nom_30" data-name="Dégradé sans nom 30" x1="27.79" y1="28.94" x2="2.5" y2="9.47" gradientUnits="userSpaceOnUse">
      <stop offset="0" stop-color="#009246"></stop>
      <stop offset=".43" stop-color="#fff"></stop>
      <stop offset=".48" stop-color="#f9e9ea"></stop>
      <stop offset=".74" stop-color="#e2848b"></stop>
      <stop offset=".92" stop-color="#d3454f"></stop>
      <stop offset="1" stop-color="#ce2d38"></stop>
    </linearGradient>
  </defs>
  <path class="cls-2" d="M9.72,36.05c-.19,0-.37-.04-.55-.14-.57-.3-.8-1.01-.5-1.58.04-.07,3.68-7.19,7.3-14.21.55-1.06,1.07-2.07,1.56-3.02-2.9,2.5-6.32,4.45-9.82,4.45-1.1,0-2.21-.19-3.31-.62C1.52,19.81,0,17.56,0,14.42c0-2.84,1.26-5.94,2.32-8.03.61-1.21,1.21-2.2,1.6-2.81.87-1.37,1.02-1.43,1.32-1.55.45-.18.97-.06,1.3.3.33.36.4.9.19,1.34-.07.14-.16.26-.27.36-.86,1.14-5,7.71-3.93,11.84.35,1.34,1.24,2.28,2.72,2.86,6.63,2.58,14.15-6.34,16.98-10.68.18-.34.34-.64.48-.9.21-.39.38-.7.5-.91.48-.84,1.06-1.11,1.72-.79.11.05,1.03.52.53,1.69-.22.51-.64,1.28-1.24,2.21-1.36,2.57-3.72,7.14-6.31,12.16,2.86-2.79,5.36-3.91,7.59-3.41,3.79.85,5.9,6.32,6.45,16.71.03.65-.47,1.21-1.12,1.24-.66.04-1.21-.47-1.24-1.12-.63-11.88-3.16-14.21-4.61-14.53-3.95-.89-10.82,8.75-14.23,15.04-.21.39-.62.62-1.04.62Z"></path>
  <g>
    <g>
      <path class="cls-1" d="M42.4,8.53h1.75v12.8h-1.75v-12.8Z"></path>
      <path class="cls-1" d="M56.23,8.53v1.53h-4.31v11.28h-1.76v-11.28h-4.31v-1.53h10.39Z"></path>
      <path class="cls-1" d="M60.17,8.53h1.96l4.65,12.8h-1.9l-1.3-3.83h-5.06l-1.39,3.83h-1.78l4.82-12.8ZM63.02,16.09l-1.94-5.66-2.07,5.66h4.01Z"></path>
      <path class="cls-1" d="M68.3,8.53h1.73v11.28h6.48v1.53h-8.22v-12.8Z"></path>
      <path class="cls-1" d="M75.86,8.53h2.02l3.68,6.15,3.68-6.15h2.03l-4.84,7.64v5.16h-1.73v-5.16l-4.84-7.64Z"></path>
      <path class="cls-1" d="M91.12,8.53h1.96l4.65,12.8h-1.9l-1.3-3.83h-5.06l-1.39,3.83h-1.78l4.82-12.8ZM93.97,16.09l-1.94-5.66-2.07,5.66h4.01Z"></path>
      <path class="cls-1" d="M99.41,8.53h8.88v1.57h-7.15v3.89h6.28v1.53h-6.28v5.82h-1.73v-12.8Z"></path>
      <path class="cls-1" d="M110.3,8.53h5.93c.98,0,1.78.14,2.41.43,1.2.55,1.8,1.55,1.8,3.02,0,.77-.16,1.39-.47,1.88-.32.49-.76.88-1.33,1.18.5.2.88.47,1.13.8s.39.87.42,1.61l.06,1.72c.02.49.06.85.12,1.09.1.41.29.67.56.78v.29h-2.13c-.06-.11-.1-.25-.14-.43s-.06-.51-.09-1.01l-.1-2.14c-.04-.84-.35-1.4-.93-1.68-.33-.16-.85-.24-1.56-.24h-3.95v5.49h-1.73v-12.8ZM116.05,14.39c.81,0,1.46-.16,1.93-.49.47-.33.71-.91.71-1.76,0-.91-.33-1.53-.99-1.87-.35-.17-.83-.26-1.42-.26h-4.24v4.38h4.01Z"></path>
      <path class="cls-1" d="M123.32,8.53h1.75v12.8h-1.75v-12.8Z"></path>
      <path class="cls-1" d="M137,9.46c.89.85,1.39,1.82,1.49,2.91h-1.69c-.19-.82-.57-1.48-1.15-1.96-.57-.48-1.38-.72-2.41-.72-1.26,0-2.28.44-3.05,1.33-.78.89-1.16,2.24-1.16,4.07,0,1.5.35,2.71,1.05,3.65.7.93,1.74,1.4,3.13,1.4,1.28,0,2.25-.49,2.92-1.47.35-.52.62-1.2.79-2.04h1.69c-.15,1.35-.65,2.48-1.5,3.39-1.02,1.1-2.39,1.65-4.11,1.65-1.49,0-2.74-.45-3.75-1.35-1.33-1.19-2-3.03-2-5.52,0-1.89.5-3.44,1.5-4.65,1.08-1.31,2.57-1.97,4.47-1.97,1.62,0,2.88.43,3.77,1.28Z"></path>
      <path class="cls-1" d="M144.39,8.53h1.96l4.65,12.8h-1.9l-1.3-3.83h-5.06l-1.39,3.83h-1.78l4.82-12.8ZM147.24,16.09l-1.94-5.66-2.07,5.66h4.01Z"></path>
    </g>
    <g>
      <path class="cls-1" d="M42.77,25.41h.27v4.33h-.27v-4.33Z"></path>
      <path class="cls-1" d="M44.42,25.41h.25l2.47,3.4c.14.2.35.54.35.54h.01s-.03-.33-.03-.54v-3.4h.27v4.33h-.25l-2.47-3.4c-.14-.2-.35-.54-.35-.54h-.01s.03.33.03.54v3.4h-.27v-4.33Z"></path>
      <path class="cls-1" d="M50.11,25.66h-1.61v-.25h3.5v.25h-1.62v4.08h-.27v-4.08Z"></path>
      <path class="cls-1" d="M52.75,25.41h2.37v.25h-2.1v1.78h1.73v.25h-1.73v1.81h2.22v.25h-2.49v-4.33Z"></path>
      <path class="cls-1" d="M56.33,25.41h1.27c.4,0,.61.04.78.13.36.18.6.54.6,1.04,0,.62-.36,1.08-.87,1.19h0s.04.06.1.17l.97,1.8h-.32l-1.03-1.92h-1.24v1.92h-.27v-4.33ZM57.77,27.58c.57,0,.93-.41.93-1,0-.38-.19-.69-.51-.84-.12-.06-.26-.09-.61-.09h-.99v1.92h1.18Z"></path>
      <path class="cls-1" d="M60.21,25.41h.25l2.47,3.4c.14.2.35.54.35.54h.01s-.03-.33-.03-.54v-3.4h.27v4.33h-.25l-2.47-3.4c-.14-.2-.35-.54-.35-.54h-.01s.03.33.03.54v3.4h-.27v-4.33Z"></path>
      <path class="cls-1" d="M67.03,28.25h-1.84l-.56,1.5h-.28l1.62-4.33h.28l1.62,4.33h-.28l-.56-1.5ZM66.11,25.72s-.09.33-.16.52l-.66,1.76h1.65l-.66-1.76c-.07-.19-.16-.52-.16-.52h-.01Z"></path>
      <path class="cls-1" d="M69.41,25.66h-1.61v-.25h3.5v.25h-1.62v4.08h-.27v-4.08Z"></path>
      <path class="cls-1" d="M72.05,25.41h.27v4.33h-.27v-4.33Z"></path>
      <path class="cls-1" d="M75.59,25.34c1.21,0,2.19.97,2.19,2.21s-.98,2.27-2.19,2.27-2.19-1-2.19-2.27.98-2.21,2.19-2.21ZM75.59,29.57c1.06,0,1.91-.88,1.91-2.02s-.85-1.96-1.91-1.96-1.91.85-1.91,1.96.85,2.02,1.91,2.02Z"></path>
      <path class="cls-1" d="M78.85,25.41h.25l2.47,3.4c.14.2.35.54.35.54h.01s-.03-.33-.03-.54v-3.4h.27v4.33h-.25l-2.47-3.4c-.14-.2-.35-.54-.35-.54h-.01s.03.33.03.54v3.4h-.27v-4.33Z"></path>
      <path class="cls-1" d="M85.67,28.25h-1.84l-.56,1.5h-.28l1.62-4.33h.28l1.62,4.33h-.28l-.56-1.5ZM84.75,25.72s-.09.33-.16.52l-.66,1.76h1.65l-.66-1.76c-.07-.19-.16-.52-.16-.52h-.01Z"></path>
      <path class="cls-1" d="M87.34,25.41h.27v4.08h2.07v.25h-2.33v-4.33Z"></path>
      <path class="cls-1" d="M92.29,25.41h.27v4.08h2.07v.25h-2.33v-4.33Z"></path>
      <path class="cls-1" d="M95.48,25.41h2.37v.25h-2.1v1.78h1.73v.25h-1.73v1.81h2.22v.25h-2.49v-4.33Z"></path>
      <path class="cls-1" d="M100.88,25.34c.98,0,1.51.49,1.51.49l-.16.2s-.52-.44-1.35-.44c-1.09,0-1.88.87-1.88,1.99s.77,1.99,1.84,1.99c.93,0,1.49-.71,1.49-.71v-.84h-.77v-.25h1.04v1.97h-.27v-.38c0-.09,0-.19,0-.19h-.01s-.52.64-1.48.64c-1.21,0-2.12-.98-2.12-2.24s.93-2.24,2.16-2.24Z"></path>
      <path class="cls-1" d="M105.86,28.25h-1.84l-.56,1.5h-.28l1.62-4.33h.28l1.62,4.33h-.28l-.56-1.5ZM104.94,25.72s-.09.33-.16.52l-.66,1.76h1.65l-.66-1.76c-.07-.19-.16-.52-.16-.52h-.01Z"></path>
      <path class="cls-1" d="M107.53,25.41h.27v4.08h2.07v.25h-2.33v-4.33Z"></path>
      <path class="cls-1" d="M114.34,25.34c1.03,0,1.55.54,1.55.54l-.16.2s-.51-.49-1.38-.49c-1.06,0-1.88.84-1.88,1.96s.8,2.02,1.89,2.02c.93,0,1.47-.59,1.47-.59l.17.19s-.58.66-1.63.66c-1.26,0-2.17-1.01-2.17-2.27s.93-2.21,2.15-2.21Z"></path>
      <path class="cls-1" d="M118.91,25.34c1.21,0,2.19.97,2.19,2.21s-.98,2.27-2.19,2.27-2.19-1-2.19-2.27.98-2.21,2.19-2.21ZM118.91,29.57c1.06,0,1.91-.88,1.91-2.02s-.85-1.96-1.91-1.96-1.91.85-1.91,1.96.85,2.02,1.91,2.02Z"></path>
      <path class="cls-1" d="M122.18,25.41h.25l2.47,3.4c.14.2.35.54.35.54h.01s-.03-.33-.03-.54v-3.4h.27v4.33h-.25l-2.47-3.4c-.14-.2-.35-.54-.35-.54h-.01s.03.33.03.54v3.4h-.27v-4.33Z"></path>
      <path class="cls-1" d="M126.73,29.08s.44.48,1.16.48c.54,0,.97-.33.97-.85,0-1.23-2.22-.89-2.22-2.25,0-.58.51-1.12,1.3-1.12.71,0,1.1.4,1.1.4l-.15.23s-.37-.37-.95-.37c-.64,0-1.03.43-1.03.85,0,1.14,2.22.79,2.22,2.24,0,.63-.48,1.13-1.26,1.13-.85,0-1.32-.54-1.32-.54l.18-.2Z"></path>
      <path class="cls-1" d="M130.13,25.41h.27v2.83c0,.82.53,1.32,1.35,1.32s1.36-.5,1.36-1.33v-2.82h.27v2.85c0,.95-.66,1.56-1.62,1.56s-1.62-.61-1.62-1.56v-2.85Z"></path>
      <path class="cls-1" d="M134.69,25.41h.27v4.08h2.07v.25h-2.33v-4.33Z"></path>
      <path class="cls-1" d="M138.43,25.66h-1.61v-.25h3.5v.25h-1.62v4.08h-.27v-4.08Z"></path>
      <path class="cls-1" d="M141.08,25.41h.27v4.33h-.27v-4.33Z"></path>
      <path class="cls-1" d="M142.72,25.41h.25l2.47,3.4c.14.2.35.54.35.54h.01s-.03-.33-.03-.54v-3.4h.27v4.33h-.25l-2.47-3.4c-.14-.2-.35-.54-.35-.54h-.01s.03.33.03.54v3.4h-.27v-4.33Z"></path>
      <path class="cls-1" d="M149.29,25.34c.98,0,1.51.49,1.51.49l-.16.2s-.52-.44-1.35-.44c-1.09,0-1.88.87-1.88,1.99s.77,1.99,1.84,1.99c.93,0,1.49-.71,1.49-.71v-.84h-.77v-.25h1.04v1.97h-.27v-.38c0-.09,0-.19,0-.19h-.01s-.52.64-1.48.64c-1.21,0-2.12-.98-2.12-2.24s.93-2.24,2.16-2.24Z"></path>
    </g>
  </g>
</svg>
